<svg width="2048" height="2048" viewBox="0 0 2048 2048" fill="none" xmlns="http://www.w3.org/2000/svg">
<path d="M413.2 1463.8C402.533 1481 389.867 1495.27 375.2 1506.6L366.2 1496.6C377.4 1488.07 387.133 1478.2 395.4 1467C403.667 1455.67 410.067 1443.87 414.6 1431.6L427.4 1434.4C425.667 1439.6 423.133 1445.53 419.8 1452.2H545V1463.8H413.2ZM547.8 1538.2H524.2C523.533 1551.27 522.667 1562.33 521.6 1571.4H545V1582.4H520C519.733 1584.8 519.467 1586.53 519.2 1587.6C517.733 1596.4 514.867 1602.47 510.6 1605.8C506.467 1609.13 499.6 1610.8 490 1610.8H467.8L464.8 1599.8H490.2C495.8 1599.8 499.733 1598.73 502 1596.6C504.4 1594.47 506.067 1590.87 507 1585.8L507.6 1582.4H388C390.667 1568.53 392.933 1553.8 394.8 1538.2H366.2V1527H396.2C397.4 1515.67 398.333 1501.73 399 1485.2H525V1499.4C525 1505 524.867 1514.2 524.6 1527H547.8V1538.2ZM410.8 1496.2C410.4 1504.73 409.667 1515 408.6 1527H452.8C453.6 1516.73 454.2 1506.47 454.6 1496.2H410.8ZM512.8 1496.2H467C466.733 1502.47 466.067 1512.73 465 1527H512.4C512.667 1515.53 512.8 1507.33 512.8 1502.4V1496.2ZM407.4 1538.2C405.8 1550.87 404.133 1561.93 402.4 1571.4H448.2C449.667 1562.07 450.933 1551 452 1538.2H407.4ZM509.2 1571.4C510.267 1562.33 511.133 1551.27 511.8 1538.2H464C462.667 1553 461.533 1564.07 460.6 1571.4H509.2ZM637.009 1610.8V1441.6H776.209V1610.8H763.009V1595.2H650.409V1610.8H637.009ZM763.009 1511.4V1453.8H650.409V1511.4H763.009ZM650.409 1523.4V1582.8H763.009V1523.4H650.409Z" fill="black"/>
<path d="M1021.4 1610.8V1441.6H1160.6V1610.8H1147.4V1595.2H1034.8V1610.8H1021.4ZM1147.4 1511.4V1453.8H1034.8V1511.4H1147.4ZM1034.8 1523.4V1582.8H1147.4V1523.4H1034.8ZM1345.41 1490.2V1563.4H1388.01V1575.2H1345.41V1613H1332.41V1575.2H1292.41V1563.4H1332.41V1490.2H1331.01C1329.28 1504.47 1322.61 1518.73 1311.01 1533C1299.41 1547.13 1281.54 1562.67 1257.41 1579.6L1249.21 1569C1271.21 1553.93 1288.68 1539.13 1301.61 1524.6C1314.54 1510.07 1323.28 1495 1327.81 1479.4H1252.81V1467.2H1332.41V1431H1345.41V1467.2H1428.41V1479.4H1350.01C1354.68 1494.73 1363.81 1509.67 1377.41 1524.2C1391.14 1538.73 1409.34 1553.73 1432.01 1569.2L1424.41 1579.8C1399.34 1562.33 1380.54 1546.53 1368.01 1532.4C1355.61 1518.13 1348.54 1504.07 1346.81 1490.2H1345.41ZM1506.62 1437.2H1567.62V1448.4H1506.62V1437.2ZM1665.62 1471.4V1514.2H1681.42V1525.2H1575.62V1514.2H1598.82L1606.02 1482.2H1582.22V1471.4H1608.42L1613.62 1448.2H1577.82V1437.4H1677.82V1448.2H1625.82L1620.62 1471.4H1665.62ZM1574.22 1477H1499.22V1465.4H1574.22V1477ZM1653.82 1482.2H1618.22L1611.02 1514.2H1653.82V1482.2ZM1508.02 1493.4H1566.62V1504.6H1508.02V1493.4ZM1566.62 1531.8H1508.02V1520.8H1566.62V1531.8ZM1596.82 1612.8H1584.82V1544.2H1671.62V1612.8H1659.62V1601.4H1596.82V1612.8ZM1519.22 1613.2H1507.82V1548.2H1567.02V1602.4H1519.22V1613.2ZM1659.62 1555H1596.82V1590.4H1659.62V1555ZM1555.82 1559.2H1519.22V1591H1555.82V1559.2Z" fill="black"/>
<rect x="734" y="500" width="580" height="680" rx="80" fill="white" stroke="black" stroke-width="20"/>
<path d="M732 556L770 511.5L821.5 495.5V1012L752 1036.5L732 1092V556Z" fill="#FA6262"/>
<rect x="734" y="1017" width="272" height="163" rx="80" stroke="black" stroke-width="20"/>
<circle cx="1065" cy="759" r="100" fill="#FA6262"/>
<rect x="889" y="984" width="174" height="206" fill="white"/>
<line x1="786" y1="1096" x2="1316" y2="1096" stroke="#A5A5A5" stroke-width="20"/>
<rect x="734" y="500" width="580" height="680" rx="80" stroke="black" stroke-width="20"/>
<line x1="870" y1="1017" x2="1324" y2="1017" stroke="black" stroke-width="20"/>
<line x1="822" y1="1022" x2="822" y2="490" stroke="black" stroke-width="20"/>
<path d="M872.075 1200.4L822 1237.23V1096H934V1237.23L883.925 1200.4L878 1196.04L872.075 1200.4Z" fill="#FA6262" stroke="black" stroke-width="20"/>
</svg>
